<svg id="Layer_1" data-name="Layer 1" xmlns="http://www.w3.org/2000/svg" viewBox="0 0 400 300" width="406" height="306" class="illustration styles_illustrationTablet__1DWOa"><title>#52 scooter</title><path d="M257.7,194.69s39.55,5.25,41.05-16.14-6.5-24.08,10.5-31.23,5,16.82,19,14.08-5-25.21,7.5-30.47,34,3.74,27.5,21.24-24,13.77-25,26.38,22,25.11,2,34.86c-10.55,5.15-19.16,1.58-24.93-2.95a23.63,23.63,0,0,0-19.41-4.77,45,45,0,0,1-30.14-4.09Z" fill="#e6e6e6" opacity="0.54"></path><path d="M172,207.39s-.27,3.69-3.23,4.8-2.92,4.31,0,4.31,9-5.48,9-5.48l-1.43-4.33Z" fill="#68e1fd"></path><path d="M172,207.39s-.27,3.69-3.23,4.8-2.92,4.31,0,4.31,9-5.48,9-5.48l-1.43-4.33Z" opacity="0.08"></path><path d="M171.56,137.84s-11.26-4.39-12.37,0,14.05,6.38,14.05,6.38Z" fill="#f4a28c"></path><path d="M171.56,137.84s-11.26-4.39-12.37,0,14.05,6.38,14.05,6.38Z" opacity="0.08"></path><ellipse cx="194.8" cy="243.42" rx="133.31" ry="16.87" fill="#e6e6e6" opacity="0.45"></ellipse><path d="M149.69,65.17s-.55,7.39.76,12.28A3.72,3.72,0,0,0,155,80.08c2.45-.69,5.57-2.34,6.35-6.27l2.13-6.5a6.66,6.66,0,0,0-3-7.07C156.27,57.29,149.8,60.65,149.69,65.17Z" fill="#f4a28c"></path><polygon points="156.53 66.86 178.54 77.1 172.03 88.83 158.96 76.98 156.53 66.86" fill="#f4a28c"></polygon><path d="M151.53,65.45a28.83,28.83,0,0,0,6.83-.61,6.17,6.17,0,0,0,.08,6.78,5,5,0,0,0,6.11,1.93L164.3,64a7.54,7.54,0,0,0-3.9-6.68,27.68,27.68,0,0,0-3.2-1.52c-2.76-1.06-6.75.82-9.23-1a1.79,1.79,0,0,0-2.82,1.2c-.39,2.91.19,7.45,4.12,9A7,7,0,0,0,151.53,65.45Z" fill="#24285b"></path><path d="M157.65,71.41s0-2.85,2.16-2.66,2.15,4.32-.76,4.74Z" fill="#f4a28c"></path><path d="M149.59,69.84l-2,2.88a1.19,1.19,0,0,0,.76,1.86l2.84.49Z" fill="#f4a28c"></path><path d="M171.26,137.72l25.48-6.46s-25.8-10.63-19.55-29.77,41.15,35.31,41.15,35.31l-44.66,7.94Z" fill="#68e1fd"></path><path d="M171.26,137.72l25.48-6.46s-25.8-10.63-19.55-29.77,41.15,35.31,41.15,35.31l-44.66,7.94Z" opacity="0.08"></path><path d="M271.32,148.8s2.58,24-26.95,22.15c-15.18-.94-32.74-1.16-46.23-1.15A18.44,18.44,0,0,0,180,191.43l2.52,14.42-9.78,2.2L169,192.39a35.43,35.43,0,0,1,24.32-42.1l18.52-5.55Z" fill="#24285b"></path><path d="M187.61,151s-23.55,5.42-22.44,32.28l5,24.82,6.54-1.22s-6.81-47.69,18.11-54.06v-2.91Z" fill="#24285b"></path><path d="M167.37,93.37,178.54,77.1s11.55-5.82,36.29-3.61S275,94.89,271.32,148.8l-53.06,1.29S230.1,133.34,208,132.24,158.91,124.6,167.37,93.37Z" fill="#68e1fd"></path><path d="M212.22,95.67s38.32,5.88,39.72,53.6L214,150.92l5.68-18.68Z" opacity="0.08"></path><path d="M199.09,68S167.73,70,167.53,92.68s17.26,33.52,35,37.56c21.74,4.95,43.7-6.8,49.39-30.73l-8.4-7.94s-5,24.37-27.7,22.71-59.22-28.94-9-38.69Z" fill="#24285b"></path><path d="M193.43,85.19a12.7,12.7,0,0,0-16.24,16.3l.16.42c5.54,14.22,34.52,31.57,34.52,31.57l-39.13,6.64,1.84,9s41.36,7.94,56.49-4.43C245,133.38,225.56,96.81,193.43,85.19Z" fill="#68e1fd"></path><path d="M193.43,85.19a12.7,12.7,0,0,0-16.24,16.3l.16.42c5.54,14.22,34.52,31.57,34.52,31.57l-39.13,6.64,1.84,9s41.36,7.94,56.49-4.43C245,133.38,225.56,96.81,193.43,85.19Z" fill="#fff" opacity="0.46"></path><polygon points="204.18 231.51 240.78 231.51 266.7 205.43 259.32 193.29 209.1 211.2 204.18 231.51" fill="#24285b"></polygon><path d="M194.52,73.91s-3.05-18.61,12.19-24.43C221,44,261.87,51.29,274.24,88.41a10.56,10.56,0,0,1-3.58,11.64l-4.29,3.34a13.37,13.37,0,0,1-18.83-2.34C239.33,90.31,223.05,75.71,194.52,73.91Z" fill="#24285b"></path><path d="M152,132.38l-4.56.62a7.47,7.47,0,0,0-6.37,8.56l.55,3.53a7.81,7.81,0,0,0,7.71,6.59h.26S124,173.72,120.49,190l28.56,34.58a19.15,19.15,0,0,0,14.77,7h40.36s11.2-27.88,60.12-30.09c0,0,5-12.93-8.49-24.37l-51.63,3.5-11.33,7.57,1.42,9.87a14.64,14.64,0,0,1-9.63,15.92h0a19.94,19.94,0,0,1-22.25-6.43c-7.71-9.71-14.73-26-3.31-47.6,0,0,14.34-20.37.6-26.51A14.14,14.14,0,0,0,152,132.38Z" fill="#ffd200"></path><polygon points="145.69 133.47 149.32 151.68 141.17 151.68 138.58 135.88 145.69 133.47" fill="#ffd200"></polygon><polygon points="145.69 133.47 149.32 151.68 141.17 151.68 138.58 135.88 145.69 133.47" fill="#fff" opacity="0.51"></polygon><path d="M172.74,142s-11.26-4.4-12.37,0,14,6.38,14,6.38Z" fill="#f4a28c"></path><circle cx="160.31" cy="145.82" r="4.27" fill="#ffd200"></circle><circle cx="117.24" cy="223.41" r="22.96" fill="#24285b"></circle><circle cx="117.24" cy="223.41" r="15.36" fill="#fff"></circle><path d="M117.24,240.27a16.86,16.86,0,1,1,16.86-16.86A16.87,16.87,0,0,1,117.24,240.27Zm0-30.72a13.86,13.86,0,1,0,13.86,13.86A13.87,13.87,0,0,0,117.24,209.55Z" fill="#68e1fd"></path><path d="M227.38,211.57s-9,11.08-10.89,19.94h21l6.83-12.19-6.47-11.27Z" fill="#fff" opacity="0.11"></path><circle cx="256.23" cy="223.41" r="22.96" fill="#24285b"></circle><circle cx="256.23" cy="223.41" r="15.36" fill="#fff"></circle><path d="M256.22,240.27a16.86,16.86,0,1,1,16.87-16.86A16.88,16.88,0,0,1,256.22,240.27Zm0-30.72a13.86,13.86,0,1,0,13.87,13.86A13.88,13.88,0,0,0,256.22,209.55Z" fill="#68e1fd"></path><circle cx="160.31" cy="145.82" r="4.27" opacity="0.08"></circle><path d="M120.49,190s-13.09,1.55-19.85,12.52a2.64,2.64,0,0,0,2.72,4c7.88-1.37,23.91-1.33,42.67,14.43Z" fill="#ffd200"></path><path d="M120.49,190s-13.09,1.55-19.85,12.52a2.64,2.64,0,0,0,2.72,4c7.88-1.37,23.91-1.33,42.67,14.43Z" opacity="0.08"></path><path d="M193.65,188.12S182,178.8,187,170.77s28.52.55,46.8-5.54,35.35-1.29,22.8,11.82Z" fill="#ffd200"></path><path d="M193.65,188.12S182,178.8,187,170.77s28.52.55,46.8-5.54,35.35-1.29,22.8,11.82Z" opacity="0.17"></path><ellipse cx="223.74" cy="48.79" rx="4.02" ry="7.62" transform="translate(141.7 262.58) rotate(-81.31)" fill="#ffd200"></ellipse><path d="M215.83,217.35s-12.66-12.43,0-22c11.34-8.6,37.3-13.94,53.66-2.48a4.48,4.48,0,0,1-.72,7.69C257.85,205.77,234.16,216.15,215.83,217.35Z" fill="#ffd200"></path><path d="M215.83,217.35s-12.66-12.43,0-22c11.34-8.6,37.3-13.94,53.66-2.48a4.48,4.48,0,0,1-.72,7.69C257.85,205.77,234.16,216.15,215.83,217.35Z" opacity="0.08"></path><path d="M271.27,197.22a41.12,41.12,0,0,0,10.2,11.11,1.51,1.51,0,0,1-1.34,2.65,31.83,31.83,0,0,1-14.92-9.16Z" fill="#ffd200"></path><path d="M146.71,52.41A8.46,8.46,0,0,0,143,58.28c-.37,2.68-.19,6,2.61,7.26,5,2.22,10.89,1.32,10.89,1.32s-.5,9.62,6.42,9.2,8.17-11.76,5.94-17.58C166.81,53.07,158.78,44.4,146.71,52.41Z" fill="#68e1fd"></path><path d="M143.4,63.2s-9.94,5.66-5.51,7.33,18.64-3.67,18.64-3.67S145.32,68.05,143.4,63.2Z" fill="#24285b"></path><path d="M176.69,206.83s-.27,3.7-3.23,4.81-2.92,4.3,0,4.31,9-5.49,9-5.49l-1.43-4.32Z" fill="#68e1fd"></path><circle cx="161.71" cy="66.06" r="4.06" fill="#fff" opacity="0.46"></circle><path d="M139.71,177.12a2.81,2.81,0,0,0-5.05-1.94c-4.13,5.49-7.84,12.1-5.66,16.07,4.25,7.75,9.39,9.25,11.2,4C141.47,191.54,139,185.38,139.71,177.12Z" fill="#fff" opacity="0.17"></path></svg>